<svg xmlns="http://www.w3.org/2000/svg" width="500" height="4000">
    <g transform="translate(30,30)">
        <line x1="100" y1="0" x2="100" y2="875" stroke="green" stroke-width="2"/>
        <g class="year">
            <text x="120" y="475" fill="blue">1952</text>
            <text x="140" y="475" fill="blue"/>
            <rect x="95" y="475" width="10" height="3" fill="purple"/>
        </g>
        <g class="year">
            <text x="120" y="125" fill="blue">1938</text>
            <text x="140" y="125" fill="blue"/>
            <rect x="95" y="125" width="10" height="3" fill="purple"/>
        </g>
        <g class="year">
            <text x="120" y="50" fill="blue">1935</text>
            <text x="140" y="50" fill="blue"/>
            <rect x="95" y="50" width="10" height="3" fill="purple"/>
        </g>
        <g class="year">
            <text x="120" y="875" fill="blue">1968</text>
            <text x="140" y="875" fill="blue"/>
            <rect x="95" y="875" width="10" height="3" fill="purple"/>
        </g>
        <g class="year">
            <text x="120" y="850" fill="blue">1967</text>
            <text x="140" y="850" fill="blue"/>
            <rect x="95" y="850" width="10" height="3" fill="purple"/>
        </g>
        <g class="year">
            <text x="120" y="850" fill="blue">1967</text>
            <text x="140" y="850" fill="blue"/>
            <rect x="95" y="850" width="10" height="3" fill="purple"/>
        </g>
        <g class="year">
            <text x="120" y="850" fill="blue">1967</text>
            <text x="140" y="850" fill="blue"/>
            <rect x="95" y="850" width="10" height="3" fill="purple"/>
        </g>
        <g class="year">
            <text x="120" y="725" fill="blue">1962</text>
            <text x="140" y="725" fill="blue"/>
            <rect x="95" y="725" width="10" height="3" fill="purple"/>
        </g>
        <g class="year">
            <text x="120" y="775" fill="blue">1964</text>
            <text x="140" y="775" fill="blue"/>
            <rect x="95" y="775" width="10" height="3" fill="purple"/>
        </g>
        <g class="year">
            <text x="120" y="825" fill="blue">1966</text>
            <text x="140" y="825" fill="blue"/>
            <rect x="95" y="825" width="10" height="3" fill="purple"/>
        </g>
        <g class="year">
            <text x="120" y="825" fill="blue">1966</text>
            <text x="140" y="825" fill="blue"/>
            <rect x="95" y="825" width="10" height="3" fill="purple"/>
        </g>
        <g class="year">
            <text x="120" y="825" fill="blue">1966</text>
            <text x="140" y="825" fill="blue"/>
            <rect x="95" y="825" width="10" height="3" fill="purple"/>
        </g>
        <g class="year">
            <text x="120" y="825" fill="blue">1966</text>
            <text x="140" y="825" fill="blue"/>
            <rect x="95" y="825" width="10" height="3" fill="purple"/>
        </g>
        <g class="year">
            <text x="120" y="850" fill="blue">1967</text>
            <text x="140" y="850" fill="blue"/>
            <rect x="95" y="850" width="10" height="3" fill="purple"/>
        </g>
        <g class="year">
            <text x="120" y="850" fill="blue">1967</text>
            <text x="140" y="850" fill="blue"/>
            <rect x="95" y="850" width="10" height="3" fill="purple"/>
        </g>
        <g class="year">
            <text x="120" y="750" fill="blue">1963</text>
            <text x="140" y="750" fill="blue"/>
            <rect x="95" y="750" width="10" height="3" fill="purple"/>
        </g>
        <g class="year">
            <text x="120" y="800" fill="blue">1965</text>
            <text x="140" y="800" fill="blue"/>
            <rect x="95" y="800" width="10" height="3" fill="purple"/>
        </g>
        <g class="year">
            <text x="120" y="775" fill="blue">1964</text>
            <text x="140" y="775" fill="blue"/>
            <rect x="95" y="775" width="10" height="3" fill="purple"/>
        </g>
        <g class="year">
            <text x="120" y="775" fill="blue">1964</text>
            <text x="140" y="775" fill="blue"/>
            <rect x="95" y="775" width="10" height="3" fill="purple"/>
        </g>
        <g class="year">
            <text x="120" y="0" fill="blue">1933</text>
            <text x="140" y="0" fill="blue"/>
            <rect x="95" y="0" width="10" height="3" fill="purple"/>
        </g>
        <g class="year">
            <text x="120" y="50" fill="blue">1935</text>
            <text x="140" y="50" fill="blue"/>
            <rect x="95" y="50" width="10" height="3" fill="purple"/>
        </g>
        <g class="year">
            <text x="120" y="75" fill="blue">1936</text>
            <text x="140" y="75" fill="blue"/>
            <rect x="95" y="75" width="10" height="3" fill="purple"/>
        </g>
        <g class="year">
            <text x="120" y="75" fill="blue">1936</text>
            <text x="140" y="75" fill="blue"/>
            <rect x="95" y="75" width="10" height="3" fill="purple"/>
        </g>
        <g class="year">
            <text x="120" y="100" fill="blue">1937</text>
            <text x="140" y="100" fill="blue"/>
            <rect x="95" y="100" width="10" height="3" fill="purple"/>
        </g>
        <g class="year">
            <text x="120" y="125" fill="blue">1938</text>
            <text x="140" y="125" fill="blue"/>
            <rect x="95" y="125" width="10" height="3" fill="purple"/>
        </g>
        <g class="year">
            <text x="120" y="125" fill="blue">1938</text>
            <text x="140" y="125" fill="blue"/>
            <rect x="95" y="125" width="10" height="3" fill="purple"/>
        </g>
        <g class="year">
            <text x="120" y="375" fill="blue">1948</text>
            <text x="140" y="375" fill="blue"/>
            <rect x="95" y="375" width="10" height="3" fill="purple"/>
        </g>
        <g class="year">
            <text x="120" y="425" fill="blue">1950</text>
            <text x="140" y="425" fill="blue"/>
            <rect x="95" y="425" width="10" height="3" fill="purple"/>
        </g>
        <g class="year">
            <text x="120" y="475" fill="blue">1952</text>
            <text x="140" y="475" fill="blue"/>
            <rect x="95" y="475" width="10" height="3" fill="purple"/>
        </g>
        <g class="year">
            <text x="120" y="500" fill="blue">1953</text>
            <text x="140" y="500" fill="blue"/>
            <rect x="95" y="500" width="10" height="3" fill="purple"/>
        </g>
        <g class="year">
            <text x="120" y="575" fill="blue">1956</text>
            <text x="140" y="575" fill="blue"/>
            <rect x="95" y="575" width="10" height="3" fill="purple"/>
        </g>
        <g class="year">
            <text x="120" y="625" fill="blue">1958</text>
            <text x="140" y="625" fill="blue"/>
            <rect x="95" y="625" width="10" height="3" fill="purple"/>
        </g>
        <g class="year">
            <text x="120" y="625" fill="blue">1958</text>
            <text x="140" y="625" fill="blue"/>
            <rect x="95" y="625" width="10" height="3" fill="purple"/>
        </g>
        <g class="year">
            <text x="120" y="625" fill="blue">1958</text>
            <text x="140" y="625" fill="blue"/>
            <rect x="95" y="625" width="10" height="3" fill="purple"/>
        </g>
        <g class="year">
            <text x="120" y="625" fill="blue">1958</text>
            <text x="140" y="625" fill="blue"/>
            <rect x="95" y="625" width="10" height="3" fill="purple"/>
        </g>
        <g class="year">
            <text x="120" y="650" fill="blue">1959</text>
            <text x="140" y="650" fill="blue"/>
            <rect x="95" y="650" width="10" height="3" fill="purple"/>
        </g>
        <g class="year">
            <text x="120" y="675" fill="blue">1960</text>
            <text x="140" y="675" fill="blue"/>
            <rect x="95" y="675" width="10" height="3" fill="purple"/>
        </g>
        <g class="year">
            <text x="120" y="700" fill="blue">1961</text>
            <text x="140" y="700" fill="blue"/>
            <rect x="95" y="700" width="10" height="3" fill="purple"/>
        </g>
        <text x="0" y="-3" fill="blue">The first Datsun!</text>
    </g>
</svg>